<?xml version="1.0" encoding="UTF-8" standalone="no"?>
<svg
   xmlns:dc="http://purl.org/dc/elements/1.1/"
   xmlns:cc="http://creativecommons.org/ns#"
   xmlns:rdf="http://www.w3.org/1999/02/22-rdf-syntax-ns#"
   xmlns:svg="http://www.w3.org/2000/svg"
   xmlns="http://www.w3.org/2000/svg"
   xmlns:sodipodi="http://sodipodi.sourceforge.net/DTD/sodipodi-0.dtd"
   xmlns:inkscape="http://www.inkscape.org/namespaces/inkscape"
   id="svg2"
   viewBox="0 0 182.07811 180.62452"
   version="1.0"
   inkscape:version="0.48.4 r9939"
   width="50px"
   height="50px"
   sodipodi:docname="Alien planet - green.svg"
   inkscape:export-filename="G:\Sparkle Touch\Pictures\Alien planet - green.png"
   inkscape:export-xdpi="126.54"
   inkscape:export-ydpi="126.54">
   <defs
      id="defs3003">
      <filter
         id="filter4772"
         inkscape:label="Glow"
         inkscape:menu="Shadows and Glows"
         inkscape:menu-tooltip="Glow of object's own color at the edges"
         color-interpolation-filters="sRGB">
         <feGaussianBlur
            id="feGaussianBlur4774"
            stdDeviation="5"
            result="result91" />
         <feComposite
            id="feComposite4776"
            in2="result91"
            in="SourceGraphic"
            operator="over" />
      </filter>
   </defs>
   <sodipodi:namedview
      pagecolor="#ffffff"
      bordercolor="#666666"
      borderopacity="1"
      objecttolerance="10"
      gridtolerance="10"
      guidetolerance="10"
      inkscape:pageopacity="0"
      inkscape:pageshadow="2"
      inkscape:window-width="1440"
      inkscape:window-height="844"
      id="namedview3001"
      showgrid="false"
      inkscape:zoom="2.140625"
      inkscape:cx="-46.75944"
      inkscape:cy="90.312259"
      inkscape:window-x="-4"
      inkscape:window-y="-4"
      inkscape:window-maximized="1"
      inkscape:current-layer="layer1"
      fit-margin-top="0"
      fit-margin-left="0"
      fit-margin-right="0"
      fit-margin-bottom="0" />
   <metadata
      id="metadata2999">
      <rdf:RDF>
         <cc:Work>
            <dc:format>image/svg+xml</dc:format>
            <dc:type
               rdf:resource="http://purl.org/dc/dcmitype/StillImage" />
            <cc:license
               rdf:resource="http://creativecommons.org/licenses/publicdomain/" />
            <dc:publisher>
               <cc:Agent
                  rdf:about="http://openclipart.org/">
                  <dc:title>Openclipart</dc:title>
               </cc:Agent>
            </dc:publisher>
            <dc:title></dc:title>
         </cc:Work>
         <cc:License
            rdf:about="http://creativecommons.org/licenses/publicdomain/">
            <cc:permits
               rdf:resource="http://creativecommons.org/ns#Reproduction" />
            <cc:permits
               rdf:resource="http://creativecommons.org/ns#Distribution" />
            <cc:permits
               rdf:resource="http://creativecommons.org/ns#DerivativeWorks" />
         </cc:License>
      </rdf:RDF>
   </metadata>
   <g
      inkscape:groupmode="layer"
      id="layer4"
      inkscape:label="Glow"
      transform="translate(27.039054,26.312259)"
      style="display:none">
      <g
         style="fill:#ffff00;fill-opacity:1;fill-rule:evenodd;stroke:none;filter:url(#filter4772)"
         transform="matrix(1.2984289,0,0,1.2984289,-105.86024,-528.12981)"
         id="g3995">
         <path
            style="fill:#ffff00;fill-opacity:1;stroke:none"
            inkscape:connector-curvature="0"
            d="m 121.35,63.763 a 58.065,58.065 0 1 1 -116.13,0 58.065,58.065 0 1 1 116.13,0 z"
            transform="matrix(0.81351,0.12424,-0.12071,0.83733,87.128,394.46)"
            id="path3997" />
         <path
            style="fill:#ffff00;fill-opacity:1;stroke:none"
            inkscape:connector-curvature="0"
            d="m 139.42,407.37 c 5.28,0.98 10.22,2.81 14.69,5.37 8.6,-3.41 15,-4.07 19.1,-0.51 8.57,7.44 -7.05,39.59 -26.25,58.46 -20.06,19.69 -52.015,37.76 -59.362,27.1 -3.923,-5.7 -1.504,-12.15 0.554,-18.53 -2.676,-5.13 -3.78,-11.13 -4.547,-17.05 -14.256,18.92 -17.624,40 -9.531,48.37 16.925,17.53 56.586,-6.21 82.726,-32.49 31.25,-31.42 42.55,-67.94 30.13,-79.12 -9.41,-8.49 -37.16,0.08 -47.51,8.4 z"
            id="path3999" />
      </g>
   </g>
   <g
      inkscape:groupmode="layer"
      id="layer3"
      inkscape:label="Alien planet"
      transform="translate(27.039054,26.312259)">
      <g
         id="layer1"
         transform="matrix(0.97060543,0,0,0.97060543,-62.884701,-378.04641)"
         style="fill-rule:evenodd;stroke:#000000;stroke-linejoin:round">
         <path
            id="path3196"
            transform="matrix(0.81351,0.12424,-0.12071,0.83733,87.128,394.46)"
            d="m 121.35,63.763 a 58.065,58.065 0 1 1 -116.13,0 58.065,58.065 0 1 1 116.13,0 z"
            inkscape:connector-curvature="0"
            style="fill:#67e000;stroke-width:7.19110011999999980;fill-opacity:1" />
         <path
            id="path3257"
            d="m 139.42,407.37 c 5.28,0.98 10.22,2.81 14.69,5.37 8.6,-3.41 15,-4.07 19.1,-0.51 8.57,7.44 -7.05,39.59 -26.25,58.46 -20.06,19.69 -52.015,37.76 -59.362,27.1 -3.923,-5.7 -1.504,-12.15 0.554,-18.53 -2.676,-5.13 -3.78,-11.13 -4.547,-17.05 -14.256,18.92 -17.624,40 -9.531,48.37 16.925,17.53 56.586,-6.21 82.726,-32.49 31.25,-31.42 42.55,-67.94 30.13,-79.12 -9.41,-8.49 -37.16,0.08 -47.51,8.4 z"
            inkscape:connector-curvature="0"
            style="fill:#1f621b;stroke-width:6;fill-opacity:1" />
      </g>
   </g>
</svg>